<svg xmlns="http://www.w3.org/2000/svg" viewBox="0 0 1040 660" fill="none">
 <g stroke="#6c0c0c" stroke-width="2.1" stroke-linecap="round" stroke-linejoin="round">
  <path d="M28 604 V214"/>
  <path d="M28 214 H176"/>
  <path d="M176 214 V168 H864 V214"/>
  <path d="M864 214 H1012"/>
  <path d="M1012 214 V604"/>
  <path d="M28 604 H1012"/>
  <path d="M28 214 L102 118 L176 214"/>
  <path d="M864 214 L938 118 L1012 214"/>
  <path d="M102 118 V86"/>
  <path d="M938 118 V86"/>
  <path d="M96 86 H108"/>
  <path d="M932 86 H944"/>
  <path d="M452 168 L520 112 L588 168"/>
  <path d="M520 112 V84"/>
  <path d="M512 84 H528"/>
  <path d="M28 262 H1012"/>
  <path d="M28 386 H1012"/>
  <path d="M28 508 H1012"/>
  <path d="M28 598 H1012"/>
  <path d="M168.0 372 V314.0 A28.0 28.0 0 0 1 224.0 314.0 V372 Z"/>
  <path d="M196.0 372 V301.4"/>
  <path d="M172.0 330.72 H220.0"/>
  <path d="M172.0 486 V438.0 A24.0 24.0 0 0 1 220.0 438.0 V486 Z"/>
  <path d="M196.0 486 V427.2"/>
  <path d="M176.0 451.44 H216.0"/>
  <path d="M174.0 592 V552.0 A22.0 22.0 0 0 1 218.0 552.0 V592 Z"/>
  <path d="M270.0 372 V314.0 A28.0 28.0 0 0 1 326.0 314.0 V372 Z"/>
  <path d="M298.0 372 V301.4"/>
  <path d="M274.0 330.72 H322.0"/>
  <path d="M274.0 486 V438.0 A24.0 24.0 0 0 1 322.0 438.0 V486 Z"/>
  <path d="M298.0 486 V427.2"/>
  <path d="M278.0 451.44 H318.0"/>
  <path d="M276.0 592 V552.0 A22.0 22.0 0 0 1 320.0 552.0 V592 Z"/>
  <path d="M372.0 372 V314.0 A28.0 28.0 0 0 1 428.0 314.0 V372 Z"/>
  <path d="M400.0 372 V301.4"/>
  <path d="M376.0 330.72 H424.0"/>
  <path d="M376.0 486 V438.0 A24.0 24.0 0 0 1 424.0 438.0 V486 Z"/>
  <path d="M400.0 486 V427.2"/>
  <path d="M380.0 451.44 H420.0"/>
  <path d="M378.0 592 V552.0 A22.0 22.0 0 0 1 422.0 552.0 V592 Z"/>
  <path d="M474.0 372 V314.0 A28.0 28.0 0 0 1 530.0 314.0 V372 Z"/>
  <path d="M502.0 372 V301.4"/>
  <path d="M478.0 330.72 H526.0"/>
  <path d="M478.0 486 V438.0 A24.0 24.0 0 0 1 526.0 438.0 V486 Z"/>
  <path d="M502.0 486 V427.2"/>
  <path d="M482.0 451.44 H522.0"/>
  <path d="M576.0 372 V314.0 A28.0 28.0 0 0 1 632.0 314.0 V372 Z"/>
  <path d="M604.0 372 V301.4"/>
  <path d="M580.0 330.72 H628.0"/>
  <path d="M580.0 486 V438.0 A24.0 24.0 0 0 1 628.0 438.0 V486 Z"/>
  <path d="M604.0 486 V427.2"/>
  <path d="M584.0 451.44 H624.0"/>
  <path d="M582.0 592 V552.0 A22.0 22.0 0 0 1 626.0 552.0 V592 Z"/>
  <path d="M678.0 372 V314.0 A28.0 28.0 0 0 1 734.0 314.0 V372 Z"/>
  <path d="M706.0 372 V301.4"/>
  <path d="M682.0 330.72 H730.0"/>
  <path d="M682.0 486 V438.0 A24.0 24.0 0 0 1 730.0 438.0 V486 Z"/>
  <path d="M706.0 486 V427.2"/>
  <path d="M686.0 451.44 H726.0"/>
  <path d="M684.0 592 V552.0 A22.0 22.0 0 0 1 728.0 552.0 V592 Z"/>
  <path d="M780.0 372 V314.0 A28.0 28.0 0 0 1 836.0 314.0 V372 Z"/>
  <path d="M808.0 372 V301.4"/>
  <path d="M784.0 330.72 H832.0"/>
  <path d="M784.0 486 V438.0 A24.0 24.0 0 0 1 832.0 438.0 V486 Z"/>
  <path d="M808.0 486 V427.2"/>
  <path d="M788.0 451.44 H828.0"/>
  <path d="M786.0 592 V552.0 A22.0 22.0 0 0 1 830.0 552.0 V592 Z"/>
  <path d="M882.0 372 V314.0 A28.0 28.0 0 0 1 938.0 314.0 V372 Z"/>
  <path d="M910.0 372 V301.4"/>
  <path d="M886.0 330.72 H934.0"/>
  <path d="M886.0 486 V438.0 A24.0 24.0 0 0 1 934.0 438.0 V486 Z"/>
  <path d="M910.0 486 V427.2"/>
  <path d="M890.0 451.44 H930.0"/>
  <path d="M888.0 592 V552.0 A22.0 22.0 0 0 1 932.0 552.0 V592 Z"/>
  <path d="M984.0 372 V314.0 A28.0 28.0 0 0 1 1040.0 314.0 V372 Z"/>
  <path d="M1012.0 372 V301.4"/>
  <path d="M988.0 330.72 H1036.0"/>
  <path d="M988.0 486 V438.0 A24.0 24.0 0 0 1 1036.0 438.0 V486 Z"/>
  <path d="M1012.0 486 V427.2"/>
  <path d="M992.0 451.44 H1032.0"/>
  <path d="M990.0 592 V552.0 A22.0 22.0 0 0 1 1034.0 552.0 V592 Z"/>
  <path d="M79.0 324 V273.0 A23.0 23.0 0 0 1 125.0 273.0 V324 Z"/>
  <path d="M102.0 324 V262.65"/>
  <path d="M83.0 288.48 H121.0"/>
  <path d="M81.0 456 V411.0 A21.0 21.0 0 0 1 123.0 411.0 V456 Z"/>
  <path d="M102.0 456 V401.55"/>
  <path d="M85.0 424.32 H119.0"/>
  <path d="M83.0 570 V531.0 A19.0 19.0 0 0 1 121.0 531.0 V570 Z"/>
  <path d="M68 172 H136"/>
  <path d="M915.0 324 V273.0 A23.0 23.0 0 0 1 961.0 273.0 V324 Z"/>
  <path d="M938.0 324 V262.65"/>
  <path d="M919.0 288.48 H957.0"/>
  <path d="M917.0 456 V411.0 A21.0 21.0 0 0 1 959.0 411.0 V456 Z"/>
  <path d="M938.0 456 V401.55"/>
  <path d="M921.0 424.32 H955.0"/>
  <path d="M919.0 570 V531.0 A19.0 19.0 0 0 1 957.0 531.0 V570 Z"/>
  <path d="M904 172 H972"/>
  <path d="M468 604 V520 A52 52 0 0 1 572 520 V604"/>
  <path d="M520 604 V520"/>
  <path d="M468 556 H572"/>
  <path d="M450 604 V506 M590 604 V506"/>
  <path d="M438 506 H602"/>
  <path d="M424 604 H616"/>
  <path d="M402 616 H638"/>
  <path d="M380 628 H660"/>
 </g>
</svg>
